<?xml version="1.0" encoding="UTF-8" standalone="no"?>
<!-- Created with Inkscape (http://www.inkscape.org/) -->

<svg
   width="45.289124mm"
   height="36.823868mm"
   viewBox="0 0 45.289124 36.823868"
   version="1.1"
   id="svg5"
   xml:space="preserve"
   inkscape:export-filename="allosaurus1 .svg"
   inkscape:export-xdpi="96"
   inkscape:export-ydpi="96"
   xmlns:inkscape="http://www.inkscape.org/namespaces/inkscape"
   xmlns:sodipodi="http://sodipodi.sourceforge.net/DTD/sodipodi-0.dtd"
   xmlns="http://www.w3.org/2000/svg"
   xmlns:svg="http://www.w3.org/2000/svg"><sodipodi:namedview
     id="namedview7"
     pagecolor="#505050"
     bordercolor="#eeeeee"
     borderopacity="1"
     inkscape:showpageshadow="0"
     inkscape:pageopacity="0"
     inkscape:pagecheckerboard="0"
     inkscape:deskcolor="#505050"
     inkscape:document-units="mm"
     showgrid="false" /><defs
     id="defs2" /><g
     inkscape:label="Capa 1"
     inkscape:groupmode="layer"
     id="layer1"
     transform="translate(-142.99364,-210.27461)"><rect
       style="fill:none;fill-rule:evenodd;stroke-width:0.325407"
       id="rect10331-0"
       width="45.289131"
       height="36.823868"
       x="142.99362"
       y="173.45074"
       ry="0"
       inkscape:export-filename="brachiosaurus.svg"
       inkscape:export-xdpi="96"
       inkscape:export-ydpi="96" /><rect
       style="fill:none;fill-rule:evenodd;stroke-width:0.325407"
       id="rect10331-0-8"
       width="45.289131"
       height="36.823868"
       x="142.99362"
       y="210.27461"
       ry="0" /><path
       style="font-variation-settings:normal;opacity:1;vector-effect:none;fill:#950707;fill-opacity:1;stroke:#000000;stroke-width:0.255885;stroke-linecap:butt;stroke-linejoin:miter;stroke-miterlimit:4;stroke-dasharray:none;stroke-dashoffset:0;stroke-opacity:1;-inkscape-stroke:none;stop-color:#000000;stop-opacity:1"
       d="m 145.22163,226.83317 c 4.96787,-4.67201 6.46825,-2.27051 11.00258,-1.94164 4.6602,-3.3959 7.62616,-5.29272 12.94422,-4.1186 l 3.0007,1.94162 c 2.89116,-1.00891 3.80849,-2.47333 4.70698,-3.94209 l 2.8242,-0.47071 0.11767,-1.47093 2.11814,0.52954 0.82372,1.05906 3.2949,1.05908 -0.41186,3.17721 -5.41303,0.11768 -3.41257,5.88374 -1.52977,2.23582 2.70652,0.88256 -0.64722,3.88325 -2.17698,0.17653 0.23535,-2.70652 h -2.47117 l -1.17674,-1.76513 -2.00047,-0.47069 -1.19693,2.70652 2.02066,4.47163 2.41233,0.11767 0.1765,1.52978 -4.60949,0.11766 -3.03936,-4.23627 -1.64744,0.11766 -0.35302,3.05955 2.00046,0.23535 0.4707,1.52977 -5.64838,-0.35303 -0.35303,-4.94233 1.88281,-3.64792 -1e-5,-2.11815 c -2.50615,-0.0385 -4.9064,-0.0351 -6.73148,-0.41375 -1.31548,-0.273 -2.77916,-1.59201 -3.84726,-1.89508 -2.60842,-0.74012 -4.02377,-0.68069 -6.07223,-0.33884 z"
       id="path1246"
       sodipodi:nodetypes="cccccccccccccccccccccccccccccccccccssc"
       inkscape:export-filename="allosaurus .svg"
       inkscape:export-xdpi="96"
       inkscape:export-ydpi="96" /></g></svg>
