<?xml version="1.0" encoding="UTF-8" standalone="no"?>
<!-- Created with Inkscape (http://www.inkscape.org/) -->

<svg
   width="45.289124mm"
   height="36.823868mm"
   viewBox="0 0 45.289124 36.823868"
   version="1.1"
   id="svg5"
   xml:space="preserve"
   inkscape:export-filename="allosaurus1 .svg"
   inkscape:export-xdpi="96"
   inkscape:export-ydpi="96"
   xmlns:inkscape="http://www.inkscape.org/namespaces/inkscape"
   xmlns:sodipodi="http://sodipodi.sourceforge.net/DTD/sodipodi-0.dtd"
   xmlns="http://www.w3.org/2000/svg"
   xmlns:svg="http://www.w3.org/2000/svg"><sodipodi:namedview
     id="namedview7"
     pagecolor="#505050"
     bordercolor="#eeeeee"
     borderopacity="1"
     inkscape:showpageshadow="0"
     inkscape:pageopacity="0"
     inkscape:pagecheckerboard="0"
     inkscape:deskcolor="#505050"
     inkscape:document-units="mm"
     showgrid="false" /><defs
     id="defs2" /><g
     inkscape:label="Capa 1"
     inkscape:groupmode="layer"
     id="layer1"
     transform="translate(-142.99364,-173.45074)"><rect
       style="fill:none;fill-rule:evenodd;stroke-width:0.325407"
       id="rect10331-0"
       width="45.289131"
       height="36.823868"
       x="142.99362"
       y="173.45074"
       ry="0" /><path
       style="font-variation-settings:normal;opacity:1;vector-effect:none;fill:#000080;fill-opacity:1;stroke:#000000;stroke-width:0.280278;stroke-linecap:butt;stroke-linejoin:miter;stroke-miterlimit:4;stroke-dasharray:none;stroke-dashoffset:0;stroke-opacity:1;-inkscape-stroke:none;stop-color:#000000;stop-opacity:1"
       d="m 146.27212,198.05042 c 0,0 10.50472,-1.48226 14.43594,-5.09124 3.93121,-3.60899 13.4048,-1.28892 13.4048,-1.28892 0,0 2.3845,-1.48226 2.90007,-8.31356 0.51557,-6.83129 3.02897,-6.5735 3.02897,-6.5735 0,0 0.58001,-3.35121 2.77119,-0.58002 2.19117,2.77118 2.06227,2.64229 2.06227,2.64229 l 0.1289,1.74004 -4.57569,0.0644 c 0,0 -1.35336,-0.19334 -1.22447,7.34687 0.1289,7.54019 -3.28676,12.30921 -3.28676,12.30921 h -1.22447 l 0.12889,8.31356 -3.02897,-0.19335 -0.0644,-5.8646 h -1.09558 v 5.47793 c 0,0 -2.90009,0.32222 -2.90009,0.0644 0,-0.25779 0.0644,-5.73571 0.0644,-5.73571 l -2.3845,0.0644 0.64445,5.47793 -3.09341,-0.19334 -0.25778,-4.76902 -0.90225,-0.25778 -0.25779,5.47792 c 0,0 -2.32005,0.38667 -2.3845,-0.25778 -0.0644,-0.64446 0.25778,-6.31572 0.25778,-6.31572 0,0 -9.92471,0.0644 -13.14701,-3.54454 z"
       id="path1093"
       inkscape:export-filename="brachiosaurus .svg"
       inkscape:export-xdpi="96"
       inkscape:export-ydpi="96" /></g></svg>
