<?xml version="1.0" encoding="UTF-8" standalone="no"?>
<!-- Created with Inkscape (http://www.inkscape.org/) -->

<svg
   width="70.262428mm"
   height="39.719059mm"
   viewBox="0 0 70.262428 39.719059"
   version="1.1"
   id="svg5"
   xml:space="preserve"
   inkscape:export-filename="allosaurus1 .svg"
   inkscape:export-xdpi="96"
   inkscape:export-ydpi="96"
   inkscape:version="1.2 (dc2aedaf03, 2022-05-15)"
   sodipodi:docname="dibujo.svg"
   xmlns:inkscape="http://www.inkscape.org/namespaces/inkscape"
   xmlns:sodipodi="http://sodipodi.sourceforge.net/DTD/sodipodi-0.dtd"
   xmlns="http://www.w3.org/2000/svg"
   xmlns:svg="http://www.w3.org/2000/svg"><sodipodi:namedview
     id="namedview7"
     pagecolor="#505050"
     bordercolor="#eeeeee"
     borderopacity="1"
     inkscape:showpageshadow="0"
     inkscape:pageopacity="0"
     inkscape:pagecheckerboard="0"
     inkscape:deskcolor="#505050"
     inkscape:document-units="mm"
     showgrid="false"
     inkscape:zoom="2.174512"
     inkscape:cx="405.83818"
     inkscape:cy="935.84215"
     inkscape:window-width="1920"
     inkscape:window-height="1017"
     inkscape:window-x="1912"
     inkscape:window-y="-8"
     inkscape:window-maximized="1"
     inkscape:current-layer="layer1" /><defs
     id="defs2" /><g
     inkscape:label="Capa 1"
     inkscape:groupmode="layer"
     id="layer1"
     transform="translate(-10.827941,-57.082178)"><path
       id="rect357-6-5"
       style="fill:none;fill-rule:evenodd;stroke:#000000;stroke-width:0.342499;stroke-opacity:1"
       d="m 23.658904,64.28177 v -0.90279 c 0,-3.39355 2.732,-6.12555 6.125554,-6.12555 v 0 h 44.136109 c 3.39355,0 6.12556,2.732 6.12556,6.12555 v 27.12545 c 0,3.39355 -2.732,6.12556 -6.12556,6.12556 H 29.784458 c -3.393554,0 -6.125554,-2.73201 -6.125554,-6.12556 l -1e-6,-0.90279"
       inkscape:export-filename="freeStego.svg"
       inkscape:export-xdpi="96"
       inkscape:export-ydpi="96" /><path
       style="font-variation-settings:normal;fill:#008000;fill-opacity:1;stroke:#000000;stroke-width:0.158269;stroke-linecap:butt;stroke-linejoin:miter;stroke-miterlimit:4;stroke-dasharray:none;stroke-dashoffset:0;stroke-opacity:1;stop-color:#000000"
       d="M 81.010233,72.622924 C 77.048335,72.208728 75.504795,72.239094 70.883175,74.662916 69.885972,72.162847 68.049933,70.990939 65.8925,70.327938 l -2.294972,0.728564 -1.748572,0.910713 0.218577,2.477124 4.990674,-0.400716 0.655721,2.586419 -0.582867,0.03634 c -2.026282,-2.183087 -4.066198,-0.239671 -3.569973,2.076407 l 1.602848,-0.145711 0.109271,-1.056424 0.655707,0.254992 c 0.777353,1.910141 0.557671,1.337934 3.314982,1.056412 l 0.764978,1.092851 -0.546413,1.967138 -1.420699,0.291421 0.254992,1.347831 3.460693,-0.400703 0.910701,-3.132818 0.692136,0.03634 0.546425,1.566409 -1.092851,0.182138 -0.364275,1.566421 3.93425,-0.58284 c 0,0 -0.400703,-3.642841 -0.546414,-3.715697 -0.145723,-0.07281 -0.801431,-0.910715 -0.801431,-0.910715 l 1.165707,-1.384258 0.218578,-1.602863 c 0.0011,-0.502578 2.569151,-1.588428 4.589958,-2.549965 z"
       id="path1213-8-4"
       sodipodi:nodetypes="cccccccccccccccccccccccccscccc"
       inkscape:export-filename="marketCarn.svg"
       inkscape:export-xdpi="96"
       inkscape:export-ydpi="96" /><path
       style="fill:none;fill-rule:evenodd;stroke:#000000;stroke-width:0.342;stroke-linecap:round;stroke-dasharray:none;stroke-opacity:1"
       id="path1032-2-4-62"
       sodipodi:type="arc"
       sodipodi:cx="23.658901"
       sodipodi:cy="76.941734"
       sodipodi:rx="12.65996"
       sodipodi:ry="12.65996"
       sodipodi:start="0"
       sodipodi:end="6.2831763"
       sodipodi:arc-type="arc"
       d="M 36.318861,76.941734 A 12.65996,12.65996 0 0 1 23.65893,89.601694 12.65996,12.65996 0 0 1 10.998941,76.941791 12.65996,12.65996 0 0 1 23.658816,64.281775 12.65996,12.65996 0 0 1 36.318861,76.94162"
       sodipodi:open="true" /><g
       id="g5491-6-8"
       transform="matrix(0.96558518,0,0,0.96558518,-13.647556,-17.691428)"
       style="fill:#1a1a1a"><rect
         style="fill:#1a1a1a;fill-rule:evenodd;stroke-width:0.262829"
         id="rect5465-4-03"
         width="3"
         height="10"
         x="66.334587"
         y="93.005997"
         ry="0" /><rect
         style="fill:#1a1a1a;fill-rule:evenodd;stroke-width:0.262829"
         id="rect5465-3-0-6"
         width="3"
         height="10"
         x="96.505997"
         y="-72.834587"
         ry="0"
         transform="rotate(90)" /></g><g
       style="fill:#000000"
       id="g6597-1-5"
       transform="matrix(0.03980676,0,0,0.03980676,22.55923,101.11552)"><g
         id="SVGRepo_bgCarrier-5-8"
         stroke-width="0" /><g
         id="SVGRepo_tracerCarrier-1-8"
         stroke-linecap="round"
         stroke-linejoin="round"
         stroke="#cccccc"
         stroke-width="2.048" /><g
         id="SVGRepo_iconCarrier-8-0"
         transform="matrix(0.85667587,0,0,0.85667587,-191.68366,-826.58745)"><path
           fill="#d9d9d9"
           d="m 256,54.99 c -27,0 -46.418,14.287 -57.633,32.23 -10.03,16.047 -14.203,34.66 -15.017,50.962 -30.608,15.135 -64.515,30.394 -91.815,45.994 -14.32,8.183 -26.805,16.414 -36.203,25.26 C 45.934,218.28 39,228.24 39,239.99 c 0,5 2.44,9.075 5.19,12.065 2.754,2.99 6.054,5.312 9.812,7.48 7.515,4.336 16.99,7.95 27.412,11.076 15.483,4.646 32.823,8.1 47.9,9.577 -14.996,25.84 -34.953,49.574 -52.447,72.315 C 56.65,378.785 39,403.99 39,431.99 c 0,4 -0.044,7.123 0.31,10.26 0.355,3.137 1.256,7.053 4.41,10.156 3.155,3.104 7.017,3.938 10.163,4.28 3.146,0.345 6.315,0.304 10.38,0.304 h 111.542 c 8.097,0 14.026,0.492 20.125,-3.43 6.1,-3.92 8.324,-9.275 12.67,-17.275 l 0.088,-0.16 0.08,-0.166 c 0,0 9.723,-19.77 21.324,-39.388 5.8,-9.808 12.097,-19.576 17.574,-26.498 2.74,-3.46 5.304,-6.204 7.15,-7.754 0.564,-0.472 0.82,-0.56 1.184,-0.76 0.363,0.2 0.62,0.288 1.184,0.76 1.846,1.55 4.41,4.294 7.15,7.754 5.477,6.922 11.774,16.69 17.574,26.498 11.6,19.618 21.324,39.387 21.324,39.387 l 0.08,0.165 0.088,0.16 c 4.346,8 6.55,13.323 12.61,17.254 6.058,3.93 11.974,3.45 19.957,3.45 H 448 c 4,0 7.12,0.043 10.244,-0.304 3.123,-0.347 6.998,-1.21 10.12,-4.332 3.12,-3.122 3.984,-6.997 4.33,-10.12 0.348,-3.122 0.306,-6.244 0.306,-10.244 0,-28 -17.65,-53.205 -37.867,-79.488 -17.493,-22.74 -37.45,-46.474 -52.447,-72.315 15.077,-1.478 32.417,-4.93 47.9,-9.576 10.422,-3.125 19.897,-6.74 27.412,-11.075 3.758,-2.168 7.058,-4.49 9.81,-7.48 2.753,-2.99 5.192,-7.065 5.192,-12.065 0,-11.75 -6.934,-21.71 -16.332,-30.554 -9.398,-8.846 -21.883,-17.077 -36.203,-25.26 -27.3,-15.6 -61.207,-30.86 -91.815,-45.994 -0.814,-16.3 -4.988,-34.915 -15.017,-50.96 C 302.418,69.276 283,54.99 256,54.99 Z"
           id="path6584-6-2" /></g></g></g></svg>
