<?xml version="1.0" encoding="UTF-8" standalone="no"?>
<!-- Created with Inkscape (http://www.inkscape.org/) -->

<svg
   width="74.434105mm"
   height="39.719063mm"
   viewBox="0 0 74.434105 39.719063"
   version="1.1"
   id="svg5"
   xml:space="preserve"
   inkscape:export-filename="allosaurus1 .svg"
   inkscape:export-xdpi="96"
   inkscape:export-ydpi="96"
   inkscape:version="1.2 (dc2aedaf03, 2022-05-15)"
   sodipodi:docname="dibujo.svg"
   xmlns:inkscape="http://www.inkscape.org/namespaces/inkscape"
   xmlns:sodipodi="http://sodipodi.sourceforge.net/DTD/sodipodi-0.dtd"
   xmlns="http://www.w3.org/2000/svg"
   xmlns:svg="http://www.w3.org/2000/svg"><sodipodi:namedview
     id="namedview7"
     pagecolor="#505050"
     bordercolor="#eeeeee"
     borderopacity="1"
     inkscape:showpageshadow="0"
     inkscape:pageopacity="0"
     inkscape:pagecheckerboard="0"
     inkscape:deskcolor="#505050"
     inkscape:document-units="mm"
     showgrid="false"
     inkscape:zoom="2.174512"
     inkscape:cx="405.83818"
     inkscape:cy="935.84215"
     inkscape:window-width="1920"
     inkscape:window-height="1017"
     inkscape:window-x="1912"
     inkscape:window-y="-8"
     inkscape:window-maximized="1"
     inkscape:current-layer="layer1" /><defs
     id="defs2" /><g
     inkscape:label="Capa 1"
     inkscape:groupmode="layer"
     id="layer1"
     transform="translate(-109.08094,-54.075522)"><path
       id="rect357-6-1-2"
       style="fill:none;fill-rule:evenodd;stroke:#000000;stroke-width:0.342499;stroke-opacity:1"
       d="m 121.91191,61.275114 v -0.90279 c 0,-3.39355 2.732,-6.12555 6.12556,-6.12555 v 0 h 44.13611 c 3.39355,0 6.12556,2.732 6.12556,6.12555 v 27.12545 c 0,3.39355 -2.732,6.12556 -6.12556,6.12556 h -44.13611 c -3.39356,0 -6.12556,-2.73201 -6.12556,-6.12556 v -0.90279"
       inkscape:export-filename="a.svg"
       inkscape:export-xdpi="96"
       inkscape:export-ydpi="96" /><path
       style="fill:none;fill-rule:evenodd;stroke:#000000;stroke-width:0.342;stroke-linecap:round;stroke-dasharray:none;stroke-opacity:1"
       id="path1032-2-4-6-7"
       sodipodi:type="arc"
       sodipodi:cx="121.9119"
       sodipodi:cy="73.935081"
       sodipodi:rx="12.65996"
       sodipodi:ry="12.65996"
       sodipodi:start="0"
       sodipodi:end="6.2831763"
       sodipodi:arc-type="arc"
       d="m 134.57186,73.935081 a 12.65996,12.65996 0 0 1 -12.65993,12.65996 12.65996,12.65996 0 0 1 -12.65999,-12.659903 12.65996,12.65996 0 0 1 12.65988,-12.660016 12.65996,12.65996 0 0 1 12.66004,12.659845"
       sodipodi:open="true" /><g
       id="g5491-6-7-1"
       transform="matrix(0.96558518,0,0,0.96558518,84.605447,-20.698084)"
       style="fill:#1a1a1a"><rect
         style="fill:#1a1a1a;fill-rule:evenodd;stroke-width:0.262829"
         id="rect5465-4-0-6"
         width="3"
         height="10"
         x="66.334587"
         y="93.005997"
         ry="0" /><rect
         style="fill:#1a1a1a;fill-rule:evenodd;stroke-width:0.262829"
         id="rect5465-3-0-2-7"
         width="3"
         height="10"
         x="96.505997"
         y="-72.834587"
         ry="0"
         transform="rotate(90)" /></g><path
       style="font-variation-settings:normal;vector-effect:none;fill:#950707;fill-opacity:1;stroke:#000000;stroke-width:0.17709;stroke-linecap:butt;stroke-linejoin:miter;stroke-miterlimit:4;stroke-dasharray:none;stroke-dashoffset:0;stroke-opacity:1;-inkscape-stroke:none;stop-color:#000000"
       d="m 183.40734,72.659787 c -3.4381,-3.233361 -4.47648,-1.571358 -7.61453,-1.343754 -3.22519,-2.350194 -5.27783,-3.662916 -8.9583,-2.850349 l -2.0767,1.34374 c -2.00088,-0.698248 -2.63574,-1.711723 -3.25755,-2.72821 l -1.95453,-0.32576 -0.0815,-1.017982 -1.46591,0.366476 -0.57006,0.732952 -2.2803,0.732952 0.28503,2.198844 3.74619,0.08146 2.36174,4.071952 1.05871,1.547338 -1.8731,0.610801 0.44791,2.687483 1.50664,0.122162 -0.16289,-1.873108 h 1.71023 l 0.81438,-1.221579 1.38446,-0.325759 0.82836,1.873108 -1.39844,3.094676 -1.6695,0.08146 -0.12214,1.058712 3.19008,0.08146 2.10345,-2.931796 1.14014,0.08146 0.24432,2.117421 -1.38446,0.162868 -0.32577,1.058711 3.90908,-0.244313 0.24431,-3.420434 -1.30303,-2.524615 1e-5,-1.465904 c 1.73442,-0.02665 3.39557,-0.02433 4.65865,-0.286351 0.91039,-0.188927 1.92337,-1.10178 2.66257,-1.311529 1.80521,-0.512207 2.78472,-0.471073 4.2024,-0.234488 z"
       id="path1246-1-2"
       sodipodi:nodetypes="cccccccccccccccccccccccccccccccccccssc"
       inkscape:export-filename="allosaurus .svg"
       inkscape:export-xdpi="96"
       inkscape:export-ydpi="96" /><g
       style="fill:#000000"
       id="g6597-1-1-8"
       transform="matrix(0.03980676,0,0,0.03980676,120.81224,98.108864)"><g
         id="SVGRepo_bgCarrier-5-9-7"
         stroke-width="0" /><g
         id="SVGRepo_tracerCarrier-1-7-2"
         stroke-linecap="round"
         stroke-linejoin="round"
         stroke="#cccccc"
         stroke-width="2.048" /><g
         id="SVGRepo_iconCarrier-8-6-5"
         transform="matrix(0.85667587,0,0,0.85667587,-191.68366,-826.58745)"><path
           fill="#d9d9d9"
           d="m 256,54.99 c -27,0 -46.418,14.287 -57.633,32.23 -10.03,16.047 -14.203,34.66 -15.017,50.962 -30.608,15.135 -64.515,30.394 -91.815,45.994 -14.32,8.183 -26.805,16.414 -36.203,25.26 C 45.934,218.28 39,228.24 39,239.99 c 0,5 2.44,9.075 5.19,12.065 2.754,2.99 6.054,5.312 9.812,7.48 7.515,4.336 16.99,7.95 27.412,11.076 15.483,4.646 32.823,8.1 47.9,9.577 -14.996,25.84 -34.953,49.574 -52.447,72.315 C 56.65,378.785 39,403.99 39,431.99 c 0,4 -0.044,7.123 0.31,10.26 0.355,3.137 1.256,7.053 4.41,10.156 3.155,3.104 7.017,3.938 10.163,4.28 3.146,0.345 6.315,0.304 10.38,0.304 h 111.542 c 8.097,0 14.026,0.492 20.125,-3.43 6.1,-3.92 8.324,-9.275 12.67,-17.275 l 0.088,-0.16 0.08,-0.166 c 0,0 9.723,-19.77 21.324,-39.388 5.8,-9.808 12.097,-19.576 17.574,-26.498 2.74,-3.46 5.304,-6.204 7.15,-7.754 0.564,-0.472 0.82,-0.56 1.184,-0.76 0.363,0.2 0.62,0.288 1.184,0.76 1.846,1.55 4.41,4.294 7.15,7.754 5.477,6.922 11.774,16.69 17.574,26.498 11.6,19.618 21.324,39.387 21.324,39.387 l 0.08,0.165 0.088,0.16 c 4.346,8 6.55,13.323 12.61,17.254 6.058,3.93 11.974,3.45 19.957,3.45 H 448 c 4,0 7.12,0.043 10.244,-0.304 3.123,-0.347 6.998,-1.21 10.12,-4.332 3.12,-3.122 3.984,-6.997 4.33,-10.12 0.348,-3.122 0.306,-6.244 0.306,-10.244 0,-28 -17.65,-53.205 -37.867,-79.488 -17.493,-22.74 -37.45,-46.474 -52.447,-72.315 15.077,-1.478 32.417,-4.93 47.9,-9.576 10.422,-3.125 19.897,-6.74 27.412,-11.075 3.758,-2.168 7.058,-4.49 9.81,-7.48 2.753,-2.99 5.192,-7.065 5.192,-12.065 0,-11.75 -6.934,-21.71 -16.332,-30.554 -9.398,-8.846 -21.883,-17.077 -36.203,-25.26 -27.3,-15.6 -61.207,-30.86 -91.815,-45.994 -0.814,-16.3 -4.988,-34.915 -15.017,-50.96 C 302.418,69.276 283,54.99 256,54.99 Z"
           id="path6584-6-4-0" /></g></g></g></svg>
