<?xml version="1.0" encoding="UTF-8" standalone="no"?>
<!-- Created with Inkscape (http://www.inkscape.org/) -->

<svg
   width="72.690125mm"
   height="39.719063mm"
   viewBox="0 0 72.690125 39.719063"
   version="1.1"
   id="svg5"
   xml:space="preserve"
   inkscape:export-filename="allosaurus1 .svg"
   inkscape:export-xdpi="96"
   inkscape:export-ydpi="96"
   inkscape:version="1.2 (dc2aedaf03, 2022-05-15)"
   sodipodi:docname="dibujo.svg"
   xmlns:inkscape="http://www.inkscape.org/namespaces/inkscape"
   xmlns:sodipodi="http://sodipodi.sourceforge.net/DTD/sodipodi-0.dtd"
   xmlns="http://www.w3.org/2000/svg"
   xmlns:svg="http://www.w3.org/2000/svg"><sodipodi:namedview
     id="namedview7"
     pagecolor="#505050"
     bordercolor="#eeeeee"
     borderopacity="1"
     inkscape:showpageshadow="0"
     inkscape:pageopacity="0"
     inkscape:pagecheckerboard="0"
     inkscape:deskcolor="#505050"
     inkscape:document-units="mm"
     showgrid="false"
     inkscape:zoom="2.174512"
     inkscape:cx="405.83818"
     inkscape:cy="935.84215"
     inkscape:window-width="1920"
     inkscape:window-height="1017"
     inkscape:window-x="1912"
     inkscape:window-y="-8"
     inkscape:window-maximized="1"
     inkscape:current-layer="layer1" /><defs
     id="defs2" /><g
     inkscape:label="Capa 1"
     inkscape:groupmode="layer"
     id="layer1"
     transform="translate(-109.2522,-10.472713)"><path
       id="rect357-6-1"
       style="fill:none;fill-rule:evenodd;stroke:#000000;stroke-width:0.342499;stroke-opacity:1"
       d="m 122.08316,17.672302 v -0.90279 c 0,-3.39355 2.732,-6.12555 6.12556,-6.12555 v 0 h 44.13611 c 3.39355,0 6.12556,2.732 6.12556,6.12555 v 27.12545 c 0,3.39355 -2.732,6.12556 -6.12556,6.12556 h -44.13611 c -3.39356,0 -6.12556,-2.73201 -6.12556,-6.12556 v -0.90279"
       inkscape:export-filename="freeStego.svg"
       inkscape:export-xdpi="96"
       inkscape:export-ydpi="96" /><path
       style="fill:none;fill-rule:evenodd;stroke:#000000;stroke-width:0.342;stroke-linecap:round;stroke-dasharray:none;stroke-opacity:1"
       id="path1032-2-4-6"
       sodipodi:type="arc"
       sodipodi:cx="122.08316"
       sodipodi:cy="30.332268"
       sodipodi:rx="12.65996"
       sodipodi:ry="12.65996"
       sodipodi:start="0"
       sodipodi:end="6.2831763"
       sodipodi:arc-type="arc"
       d="M 134.74312,30.332268 A 12.65996,12.65996 0 0 1 122.08319,42.992228 12.65996,12.65996 0 0 1 109.4232,30.332325 12.65996,12.65996 0 0 1 122.08307,17.672308 12.65996,12.65996 0 0 1 134.74312,30.332154"
       sodipodi:open="true" /><path
       style="font-variation-settings:normal;fill:#000080;fill-opacity:1;stroke:#000000;stroke-width:0.181498;stroke-linecap:butt;stroke-linejoin:miter;stroke-miterlimit:4;stroke-dasharray:none;stroke-dashoffset:0;stroke-opacity:1;stop-color:#000000"
       d="m 181.80247,34.335894 c 0,0 -6.80247,-0.959849 -9.34818,-3.296894 -2.54572,-2.33706 -8.68045,-0.834664 -8.68045,-0.834664 0,0 -1.54413,-0.959849 -1.87799,-5.383551 -0.33386,-4.423702 -1.96144,-4.256773 -1.96144,-4.256773 0,0 -0.3756,-2.170115 -1.79453,-0.375587 -1.41893,1.794512 -1.33545,1.711054 -1.33545,1.711054 l -0.0834,1.126778 2.96305,0.04164 c 0,0 0.87639,-0.125216 0.79292,4.757562 -0.0835,4.882763 2.12838,7.970998 2.12838,7.970998 h 0.79292 l -0.0835,5.383551 1.96145,-0.125216 0.0416,-3.797698 h 0.70946 v 3.547312 c 0,0 1.878,0.208643 1.878,0.04164 0,-0.16693 -0.0416,-3.71424 -0.0416,-3.71424 l 1.54411,0.04163 -0.41732,3.547311 2.00318,-0.125216 0.16692,-3.08825 0.58428,-0.16693 0.16692,3.54731 c 0,0 1.50239,0.250387 1.54411,-0.166929 0.0416,-0.417332 -0.16692,-4.089843 -0.16692,-4.089843 0,0 6.42688,0.04164 8.51353,-2.295301 z"
       id="path1093-2"
       inkscape:export-filename="freeBrach.svg"
       inkscape:export-xdpi="96"
       inkscape:export-ydpi="96" /><g
       id="g5491-6-7"
       transform="matrix(0.96558518,0,0,0.96558518,84.776702,-64.300896)"
       style="fill:#1a1a1a"><rect
         style="fill:#1a1a1a;fill-rule:evenodd;stroke-width:0.262829"
         id="rect5465-4-0"
         width="3"
         height="10"
         x="66.334587"
         y="93.005997"
         ry="0" /><rect
         style="fill:#1a1a1a;fill-rule:evenodd;stroke-width:0.262829"
         id="rect5465-3-0-2"
         width="3"
         height="10"
         x="96.505997"
         y="-72.834587"
         ry="0"
         transform="rotate(90)" /></g><g
       style="fill:#000000"
       id="g6597-1-1"
       transform="matrix(0.03980676,0,0,0.03980676,120.98349,54.506052)"><g
         id="SVGRepo_bgCarrier-5-9"
         stroke-width="0" /><g
         id="SVGRepo_tracerCarrier-1-7"
         stroke-linecap="round"
         stroke-linejoin="round"
         stroke="#cccccc"
         stroke-width="2.048" /><g
         id="SVGRepo_iconCarrier-8-6"
         transform="matrix(0.85667587,0,0,0.85667587,-191.68366,-826.58745)"><path
           fill="#d9d9d9"
           d="m 256,54.99 c -27,0 -46.418,14.287 -57.633,32.23 -10.03,16.047 -14.203,34.66 -15.017,50.962 -30.608,15.135 -64.515,30.394 -91.815,45.994 -14.32,8.183 -26.805,16.414 -36.203,25.26 C 45.934,218.28 39,228.24 39,239.99 c 0,5 2.44,9.075 5.19,12.065 2.754,2.99 6.054,5.312 9.812,7.48 7.515,4.336 16.99,7.95 27.412,11.076 15.483,4.646 32.823,8.1 47.9,9.577 -14.996,25.84 -34.953,49.574 -52.447,72.315 C 56.65,378.785 39,403.99 39,431.99 c 0,4 -0.044,7.123 0.31,10.26 0.355,3.137 1.256,7.053 4.41,10.156 3.155,3.104 7.017,3.938 10.163,4.28 3.146,0.345 6.315,0.304 10.38,0.304 h 111.542 c 8.097,0 14.026,0.492 20.125,-3.43 6.1,-3.92 8.324,-9.275 12.67,-17.275 l 0.088,-0.16 0.08,-0.166 c 0,0 9.723,-19.77 21.324,-39.388 5.8,-9.808 12.097,-19.576 17.574,-26.498 2.74,-3.46 5.304,-6.204 7.15,-7.754 0.564,-0.472 0.82,-0.56 1.184,-0.76 0.363,0.2 0.62,0.288 1.184,0.76 1.846,1.55 4.41,4.294 7.15,7.754 5.477,6.922 11.774,16.69 17.574,26.498 11.6,19.618 21.324,39.387 21.324,39.387 l 0.08,0.165 0.088,0.16 c 4.346,8 6.55,13.323 12.61,17.254 6.058,3.93 11.974,3.45 19.957,3.45 H 448 c 4,0 7.12,0.043 10.244,-0.304 3.123,-0.347 6.998,-1.21 10.12,-4.332 3.12,-3.122 3.984,-6.997 4.33,-10.12 0.348,-3.122 0.306,-6.244 0.306,-10.244 0,-28 -17.65,-53.205 -37.867,-79.488 -17.493,-22.74 -37.45,-46.474 -52.447,-72.315 15.077,-1.478 32.417,-4.93 47.9,-9.576 10.422,-3.125 19.897,-6.74 27.412,-11.075 3.758,-2.168 7.058,-4.49 9.81,-7.48 2.753,-2.99 5.192,-7.065 5.192,-12.065 0,-11.75 -6.934,-21.71 -16.332,-30.554 -9.398,-8.846 -21.883,-17.077 -36.203,-25.26 -27.3,-15.6 -61.207,-30.86 -91.815,-45.994 -0.814,-16.3 -4.988,-34.915 -15.017,-50.96 C 302.418,69.276 283,54.99 256,54.99 Z"
           id="path6584-6-4" /></g></g></g></svg>
