<?xml version="1.0" encoding="UTF-8" standalone="no"?>
<!-- Created with Inkscape (http://www.inkscape.org/) -->

<svg
   width="45.289131mm"
   height="36.823868mm"
   viewBox="0 0 45.289131 36.823868"
   version="1.1"
   id="svg5"
   xml:space="preserve"
   inkscape:export-filename="allosaurus1 .svg"
   inkscape:export-xdpi="96"
   inkscape:export-ydpi="96"
   xmlns:inkscape="http://www.inkscape.org/namespaces/inkscape"
   xmlns:sodipodi="http://sodipodi.sourceforge.net/DTD/sodipodi-0.dtd"
   xmlns="http://www.w3.org/2000/svg"
   xmlns:svg="http://www.w3.org/2000/svg"><sodipodi:namedview
     id="namedview7"
     pagecolor="#505050"
     bordercolor="#eeeeee"
     borderopacity="1"
     inkscape:showpageshadow="0"
     inkscape:pageopacity="0"
     inkscape:pagecheckerboard="0"
     inkscape:deskcolor="#505050"
     inkscape:document-units="mm"
     showgrid="false" /><defs
     id="defs2" /><g
     inkscape:label="Capa 1"
     inkscape:groupmode="layer"
     id="layer1"
     transform="translate(-97.704493,-210.27461)"><rect
       style="fill:none;fill-rule:evenodd;stroke-width:0.325407"
       id="rect10331"
       width="45.289131"
       height="36.823868"
       x="97.704491"
       y="173.45074"
       ry="0"
       inkscape:export-filename="stegosaurus.svg"
       inkscape:export-xdpi="96"
       inkscape:export-ydpi="96" /><rect
       style="fill:none;fill-rule:evenodd;stroke-width:0.325407"
       id="rect10331-0"
       width="45.289131"
       height="36.823868"
       x="142.99362"
       y="173.45074"
       ry="0"
       inkscape:export-filename="brachiosaurus.svg"
       inkscape:export-xdpi="96"
       inkscape:export-ydpi="96" /><rect
       style="fill:none;fill-rule:evenodd;stroke-width:0.325407"
       id="rect10331-3"
       width="45.289131"
       height="36.823868"
       x="97.704491"
       y="210.27461"
       ry="0" /><rect
       style="fill:none;fill-rule:evenodd;stroke-width:0.325407"
       id="rect10331-0-8"
       width="45.289131"
       height="36.823868"
       x="142.99362"
       y="210.27461"
       ry="0"
       inkscape:export-filename="allosaurus.svg"
       inkscape:export-xdpi="96"
       inkscape:export-ydpi="96" /><path
       style="font-variation-settings:normal;opacity:1;fill:#008000;fill-opacity:1;stroke:#000000;stroke-width:0.208813;stroke-linecap:butt;stroke-linejoin:miter;stroke-miterlimit:4;stroke-dasharray:none;stroke-dashoffset:0;stroke-opacity:1;stop-color:#000000;stop-opacity:1"
       d="m 107.70589,222.98848 c 5.22717,-0.54648 7.26365,-0.50642 13.36123,2.69148 1.31567,-3.29848 3.73806,-4.84464 6.58448,-5.71939 l 3.02791,0.96124 2.30698,1.20156 -0.28838,3.2682 -6.58448,-0.52867 -0.86513,3.4124 0.769,0.048 c 2.67339,-2.88028 5.36478,-0.31621 4.71008,2.73953 l -2.11474,-0.19225 -0.14417,-1.3938 -0.86512,0.33643 c -1.0256,2.52016 -0.73576,1.76521 -4.37365,1.39379 l -1.00929,1.44186 0.72093,2.59535 1.87441,0.38449 -0.33643,1.77829 -4.56589,-0.52868 -1.20154,-4.13332 -0.91318,0.048 -0.72093,2.06667 1.44186,0.24031 0.48061,2.06667 -5.19069,-0.76899 c 0,0 0.52868,-4.8062 0.72093,-4.90232 0.19225,-0.0962 1.05737,-1.20156 1.05737,-1.20156 l -1.53799,-1.82635 -0.28837,-2.11473 c -0.002,-0.6631 -3.38964,-2.09572 -6.05581,-3.36433 z"
       id="path1213"
       sodipodi:nodetypes="cccccccccccccccccccccccccscccc"
       inkscape:export-filename="raptor.svg"
       inkscape:export-xdpi="96"
       inkscape:export-ydpi="96" /></g></svg>
