<?xml version="1.0" encoding="UTF-8" standalone="no"?>
<!-- Created with Inkscape (http://www.inkscape.org/) -->

<svg
   width="45.289131mm"
   height="36.823868mm"
   viewBox="0 0 45.289131 36.823868"
   version="1.1"
   id="svg5"
   xml:space="preserve"
   inkscape:export-filename="allosaurus1 .svg"
   inkscape:export-xdpi="96"
   inkscape:export-ydpi="96"
   xmlns:inkscape="http://www.inkscape.org/namespaces/inkscape"
   xmlns:sodipodi="http://sodipodi.sourceforge.net/DTD/sodipodi-0.dtd"
   xmlns="http://www.w3.org/2000/svg"
   xmlns:svg="http://www.w3.org/2000/svg"><sodipodi:namedview
     id="namedview7"
     pagecolor="#505050"
     bordercolor="#eeeeee"
     borderopacity="1"
     inkscape:showpageshadow="0"
     inkscape:pageopacity="0"
     inkscape:pagecheckerboard="0"
     inkscape:deskcolor="#505050"
     inkscape:document-units="mm"
     showgrid="false" /><defs
     id="defs2" /><g
     inkscape:label="Capa 1"
     inkscape:groupmode="layer"
     id="layer1"
     transform="translate(-97.704493,-173.45074)"><rect
       style="fill:none;fill-rule:evenodd;stroke-width:0.325407"
       id="rect10331"
       width="45.289131"
       height="36.823868"
       x="97.704491"
       y="173.45074"
       ry="0" /><rect
       style="fill:none;fill-rule:evenodd;stroke-width:0.325407"
       id="rect10331-0"
       width="45.289131"
       height="36.823868"
       x="142.99362"
       y="173.45074"
       ry="0" /><path
       style="font-variation-settings:normal;opacity:1;fill:#ffff00;fill-opacity:1;stroke:#000000;stroke-width:0.267251;stroke-linecap:butt;stroke-linejoin:miter;stroke-miterlimit:4;stroke-dasharray:none;stroke-dashoffset:0;stroke-opacity:1;stop-color:#000000;stop-opacity:1"
       d="m 110.62982,193.33399 -2.68699,-0.0855 -2.52006,1.9934 0.0814,0.77022 8.95665,0.77023 -0.48855,5.30598 2.52416,0.0855 0.0567,-5.07608 0.81918,-0.0502 -0.0436,4.86428 2.33746,0.20142 -0.16286,-4.9957 2.72652,0.17636 -0.27801,4.36636 2.27988,0.17118 0.16284,-4.87807 h 0.9771 l 0.24426,5.04922 1.79133,-0.25673 -0.0814,-4.79249 c 3.34703,0.22757 5.48462,-1.45162 7.97955,-2.56742 l -2.84984,-0.94137 0.0814,-1.54045 -1.00741,-0.74023 -1.10467,0.65465 -0.65634,-0.34232 0.56997,-1.62605 -1.05851,-1.54043 -1.30279,-0.17116 -0.7328,0.42791 -0.97709,-1.11254 0.73281,-1.19813 -0.89565,-1.45486 -1.62849,-0.0856 -1.05853,1.36929 -0.18174,-0.76503 -0.30679,-2.40144 -2.27987,-1.36927 -1.70991,1.11253 -0.48854,1.7116 -1.22137,-1.19812 -1.87275,0.51348 -0.73281,2.13951 1.05851,1.7116 -0.81424,1.11254 -0.81423,-2.05393 h -1.95419 l -0.97709,1.28371 0.89566,1.88278 0.58804,1.04861 c -1.26852,1.51361 -1.60684,1.82112 -1.97633,2.5207 z"
       id="path536"
       sodipodi:nodetypes="cccccccccccccccccccccccccccccccccccccccccccccccccccc"
       inkscape:export-filename="stegosaurus.svg"
       inkscape:export-xdpi="96"
       inkscape:export-ydpi="96" /></g></svg>
